<svg xmlns="http://www.w3.org/2000/svg" xmlns:xlink="http://www.w3.org/1999/xlink" width="500" zoomAndPan="magnify" viewBox="0 0 375 374.999991" height="500" preserveAspectRatio="xMidYMid meet" version="1.0"><defs><g/></defs><g fill="#000000" fill-opacity="1"><g transform="translate(174.210586, 262.862249)"><g><path d="M 20.75 -46.375 C 14.707031 -38.46875 11.6875 -29.925781 11.6875 -20.75 C 11.6875 -9.820312 16.273438 -1.335938 25.453125 4.703125 C 30.804688 8.304688 36.878906 10.109375 43.671875 10.109375 C 50.472656 10.109375 56.375 8.773438 61.375 6.109375 C 70.789062 1.222656 76.078125 -6.972656 77.234375 -18.484375 C 77.359375 -19.296875 77.421875 -20.109375 77.421875 -20.921875 C 77.421875 -25.222656 76.226562 -29.875 73.84375 -34.875 C 71.457031 -39.875 67.59375 -44.460938 62.25 -48.640625 L 30.859375 -73.40625 C 24.003906 -78.75 20.578125 -85.660156 20.578125 -94.140625 C 20.578125 -102.628906 23.304688 -109.8125 28.765625 -115.6875 C 34.234375 -121.5625 41.613281 -124.5 50.90625 -124.5 C 55.5625 -124.5 60.617188 -123.914062 66.078125 -122.75 L 73.0625 -122.75 L 73.40625 -101.296875 L 71.65625 -101.296875 C 71.539062 -106.878906 69.535156 -111.269531 65.640625 -114.46875 C 61.753906 -117.664062 56.875 -119.265625 51 -119.265625 C 45.125 -119.265625 40.210938 -117.316406 36.265625 -113.421875 C 32.316406 -109.523438 30.34375 -104.523438 30.34375 -98.421875 C 30.34375 -92.316406 32.898438 -87.234375 38.015625 -83.171875 L 70.265625 -57.71875 C 83.054688 -47.601562 89.453125 -35.394531 89.453125 -21.09375 C 89.453125 -10.40625 85.207031 -1.222656 76.71875 6.453125 C 69.394531 13.078125 59.628906 16.390625 47.421875 16.390625 C 39.984375 16.390625 33.359375 14.992188 27.546875 12.203125 C 16.617188 7.085938 10.050781 -1.628906 7.84375 -13.953125 C 7.5 -15.804688 7.328125 -18.15625 7.328125 -21 C 7.328125 -23.851562 8.140625 -27.75 9.765625 -32.6875 C 11.390625 -37.632812 14.523438 -42.601562 19.171875 -47.59375 Z M 20.75 -46.375 "/></g></g></g><g fill="#000000" fill-opacity="1"><g transform="translate(83.403301, 222.163078)"><g><path d="M 146.9375 -64.703125 C 146.9375 -43.566406 141.25 -27.066406 129.875 -15.203125 C 118.507812 -3.347656 102.441406 2.578125 81.671875 2.578125 C 67.660156 2.578125 55.03125 -0.367188 43.78125 -6.265625 C 32.539062 -12.171875 23.816406 -20.222656 17.609375 -30.421875 C 11.398438 -40.617188 8.296875 -52.015625 8.296875 -64.609375 C 8.296875 -77.210938 11.367188 -88.613281 17.515625 -98.8125 C 23.660156 -109.019531 32.140625 -117.039062 42.953125 -122.875 C 53.765625 -128.707031 65.8125 -131.625 79.09375 -131.625 C 87.445312 -131.625 95.957031 -130.488281 104.625 -128.21875 C 113.289062 -125.945312 120.507812 -122.90625 126.28125 -119.09375 L 129.96875 -93.09375 L 128.3125 -93.09375 C 125.726562 -103.425781 119.765625 -111.507812 110.421875 -117.34375 C 101.085938 -123.1875 90.707031 -126.109375 79.28125 -126.109375 C 62.925781 -126.109375 49.3125 -120.300781 38.4375 -108.6875 C 27.5625 -97.070312 22.125 -82.472656 22.125 -64.890625 C 22.125 -47.316406 27.742188 -32.597656 38.984375 -20.734375 C 50.234375 -8.878906 64.953125 -2.953125 83.140625 -2.953125 C 101.335938 -2.953125 116.179688 -8.847656 127.671875 -20.640625 C 139.160156 -32.441406 144.90625 -48.609375 144.90625 -69.140625 L 146.75 -69.140625 C 146.875 -67.660156 146.9375 -66.179688 146.9375 -64.703125 Z M 146.9375 -64.703125 "/></g></g></g><path fill="#e1e1e1" d="M 111.703125 179.496094 L 248.601562 179.496094 C 249.664062 179.496094 250.679688 179.917969 251.429688 180.667969 C 252.179688 181.417969 252.601562 182.4375 252.601562 183.5 L 252.601562 191.5 C 252.601562 192.5625 252.179688 193.582031 251.429688 194.332031 C 250.679688 195.082031 249.664062 195.503906 248.601562 195.503906 L 111.703125 195.503906 C 110.644531 195.503906 109.625 195.082031 108.875 194.332031 C 108.125 193.582031 107.703125 192.5625 107.703125 191.5 L 107.703125 183.5 C 107.703125 182.4375 108.125 181.417969 108.875 180.667969 C 109.625 179.917969 110.644531 179.496094 111.703125 179.496094 Z M 111.703125 179.496094 " fill-opacity="1" fill-rule="nonzero"/><g fill="#000000" fill-opacity="1"><g transform="translate(115.521194, 190.499987)"><g><path d="M 6.765625 -1.375 C 6.484375 -0.90625 6.09375 -0.539062 5.59375 -0.28125 C 5.101562 -0.03125 4.550781 0.09375 3.9375 0.09375 C 3.207031 0.09375 2.582031 -0.046875 2.0625 -0.328125 C 1.539062 -0.609375 1.140625 -1.007812 0.859375 -1.53125 C 0.585938 -2.0625 0.453125 -2.691406 0.453125 -3.421875 C 0.453125 -4.171875 0.601562 -4.828125 0.90625 -5.390625 C 1.21875 -5.960938 1.644531 -6.410156 2.1875 -6.734375 C 2.738281 -7.054688 3.375 -7.21875 4.09375 -7.21875 C 4.707031 -7.21875 5.234375 -7.097656 5.671875 -6.859375 C 6.109375 -6.628906 6.472656 -6.273438 6.765625 -5.796875 L 5.765625 -5.078125 C 5.585938 -5.410156 5.351562 -5.65625 5.0625 -5.8125 C 4.769531 -5.96875 4.445312 -6.046875 4.09375 -6.046875 C 3.632812 -6.046875 3.226562 -5.929688 2.875 -5.703125 C 2.53125 -5.484375 2.257812 -5.175781 2.0625 -4.78125 C 1.863281 -4.394531 1.765625 -3.945312 1.765625 -3.4375 C 1.765625 -2.695312 1.957031 -2.117188 2.34375 -1.703125 C 2.726562 -1.285156 3.265625 -1.078125 3.953125 -1.078125 C 4.335938 -1.078125 4.6875 -1.164062 5 -1.34375 C 5.320312 -1.519531 5.585938 -1.785156 5.796875 -2.140625 Z M 6.765625 -1.375 "/></g></g></g><g fill="#000000" fill-opacity="1"><g transform="translate(129.828979, 190.499987)"><g><path d="M -0.09375 0 L 2.9375 -7.109375 L 4.03125 -7.109375 L 6.953125 0 L 5.625 0 L 4.984375 -1.625 L 1.890625 -1.625 L 1.21875 0 Z M 2.328125 -2.71875 L 4.5625 -2.71875 L 3.46875 -5.515625 Z M 2.328125 -2.71875 "/></g></g></g><g fill="#000000" fill-opacity="1"><g transform="translate(144.336922, 190.499987)"><g><path d="M 2.9375 0.09375 C 2.101562 0.09375 1.453125 -0.09375 0.984375 -0.46875 C 0.523438 -0.84375 0.257812 -1.390625 0.1875 -2.109375 L 1.40625 -2.296875 C 1.53125 -1.441406 2.0625 -1.015625 3 -1.015625 C 3.40625 -1.015625 3.722656 -1.09375 3.953125 -1.25 C 4.179688 -1.414062 4.296875 -1.644531 4.296875 -1.9375 C 4.296875 -2.207031 4.179688 -2.410156 3.953125 -2.546875 C 3.722656 -2.679688 3.359375 -2.8125 2.859375 -2.9375 C 2.390625 -3.050781 1.988281 -3.1875 1.65625 -3.34375 C 1.320312 -3.5 1.066406 -3.707031 0.890625 -3.96875 C 0.710938 -4.238281 0.625 -4.59375 0.625 -5.03125 C 0.625 -5.457031 0.734375 -5.832031 0.953125 -6.15625 C 1.171875 -6.488281 1.46875 -6.75 1.84375 -6.9375 C 2.226562 -7.125 2.671875 -7.21875 3.171875 -7.21875 C 3.835938 -7.21875 4.378906 -7.039062 4.796875 -6.6875 C 5.210938 -6.34375 5.457031 -5.867188 5.53125 -5.265625 L 4.390625 -5.0625 C 4.253906 -5.757812 3.828125 -6.109375 3.109375 -6.109375 C 2.765625 -6.109375 2.484375 -6.015625 2.265625 -5.828125 C 2.046875 -5.648438 1.9375 -5.414062 1.9375 -5.125 C 1.9375 -4.832031 2.039062 -4.609375 2.25 -4.453125 C 2.46875 -4.296875 2.835938 -4.15625 3.359375 -4.03125 C 3.816406 -3.925781 4.210938 -3.800781 4.546875 -3.65625 C 4.878906 -3.519531 5.132812 -3.320312 5.3125 -3.0625 C 5.5 -2.8125 5.59375 -2.460938 5.59375 -2.015625 C 5.59375 -1.609375 5.476562 -1.242188 5.25 -0.921875 C 5.03125 -0.609375 4.722656 -0.359375 4.328125 -0.171875 C 3.929688 0.00390625 3.46875 0.09375 2.9375 0.09375 Z M 2.9375 0.09375 "/></g></g></g><g fill="#000000" fill-opacity="1"><g transform="translate(157.824064, 190.499987)"><g><path d="M -0.09375 0 L 2.9375 -7.109375 L 4.03125 -7.109375 L 6.953125 0 L 5.625 0 L 4.984375 -1.625 L 1.890625 -1.625 L 1.21875 0 Z M 2.328125 -2.71875 L 4.5625 -2.71875 L 3.46875 -5.515625 Z M 2.328125 -2.71875 "/></g></g></g><g fill="#000000" fill-opacity="1"><g transform="translate(172.332007, 190.499987)"><g/></g></g><g fill="#000000" fill-opacity="1"><g transform="translate(182.386459, 190.499987)"><g><path d="M 2.9375 0.09375 C 2.101562 0.09375 1.453125 -0.09375 0.984375 -0.46875 C 0.523438 -0.84375 0.257812 -1.390625 0.1875 -2.109375 L 1.40625 -2.296875 C 1.53125 -1.441406 2.0625 -1.015625 3 -1.015625 C 3.40625 -1.015625 3.722656 -1.09375 3.953125 -1.25 C 4.179688 -1.414062 4.296875 -1.644531 4.296875 -1.9375 C 4.296875 -2.207031 4.179688 -2.410156 3.953125 -2.546875 C 3.722656 -2.679688 3.359375 -2.8125 2.859375 -2.9375 C 2.390625 -3.050781 1.988281 -3.1875 1.65625 -3.34375 C 1.320312 -3.5 1.066406 -3.707031 0.890625 -3.96875 C 0.710938 -4.238281 0.625 -4.59375 0.625 -5.03125 C 0.625 -5.457031 0.734375 -5.832031 0.953125 -6.15625 C 1.171875 -6.488281 1.46875 -6.75 1.84375 -6.9375 C 2.226562 -7.125 2.671875 -7.21875 3.171875 -7.21875 C 3.835938 -7.21875 4.378906 -7.039062 4.796875 -6.6875 C 5.210938 -6.34375 5.457031 -5.867188 5.53125 -5.265625 L 4.390625 -5.0625 C 4.253906 -5.757812 3.828125 -6.109375 3.109375 -6.109375 C 2.765625 -6.109375 2.484375 -6.015625 2.265625 -5.828125 C 2.046875 -5.648438 1.9375 -5.414062 1.9375 -5.125 C 1.9375 -4.832031 2.039062 -4.609375 2.25 -4.453125 C 2.46875 -4.296875 2.835938 -4.15625 3.359375 -4.03125 C 3.816406 -3.925781 4.210938 -3.800781 4.546875 -3.65625 C 4.878906 -3.519531 5.132812 -3.320312 5.3125 -3.0625 C 5.5 -2.8125 5.59375 -2.460938 5.59375 -2.015625 C 5.59375 -1.609375 5.476562 -1.242188 5.25 -0.921875 C 5.03125 -0.609375 4.722656 -0.359375 4.328125 -0.171875 C 3.929688 0.00390625 3.46875 0.09375 2.9375 0.09375 Z M 2.9375 0.09375 "/></g></g></g><g fill="#000000" fill-opacity="1"><g transform="translate(195.873601, 190.499987)"><g><path d="M 2 0 L 0.734375 0 L 0.734375 -7.109375 L 3.234375 -7.109375 C 4.160156 -7.109375 4.863281 -6.921875 5.34375 -6.546875 C 5.832031 -6.171875 6.078125 -5.628906 6.078125 -4.921875 C 6.078125 -4.210938 5.8125 -3.65625 5.28125 -3.25 C 4.757812 -2.84375 3.992188 -2.640625 2.984375 -2.640625 L 2 -2.640625 Z M 3.1875 -6.046875 L 2 -6.046875 L 2 -3.71875 L 3.0625 -3.71875 C 3.65625 -3.71875 4.085938 -3.8125 4.359375 -4 C 4.640625 -4.195312 4.78125 -4.5 4.78125 -4.90625 C 4.78125 -5.3125 4.648438 -5.601562 4.390625 -5.78125 C 4.128906 -5.957031 3.726562 -6.046875 3.1875 -6.046875 Z M 3.1875 -6.046875 "/></g></g></g><g fill="#000000" fill-opacity="1"><g transform="translate(209.741042, 190.499987)"><g><path d="M 3.890625 0.09375 C 3.171875 0.09375 2.550781 -0.0390625 2.03125 -0.3125 C 1.519531 -0.59375 1.128906 -0.992188 0.859375 -1.515625 C 0.585938 -2.046875 0.453125 -2.679688 0.453125 -3.421875 C 0.453125 -4.160156 0.597656 -4.816406 0.890625 -5.390625 C 1.179688 -5.960938 1.59375 -6.410156 2.125 -6.734375 C 2.664062 -7.054688 3.304688 -7.21875 4.046875 -7.21875 C 4.703125 -7.21875 5.273438 -7.066406 5.765625 -6.765625 C 6.265625 -6.472656 6.648438 -6.0625 6.921875 -5.53125 C 7.191406 -5.007812 7.328125 -4.398438 7.328125 -3.703125 C 7.328125 -2.929688 7.175781 -2.257812 6.875 -1.6875 C 6.582031 -1.125 6.175781 -0.6875 5.65625 -0.375 C 5.144531 -0.0625 4.554688 0.09375 3.890625 0.09375 Z M 3.859375 -1.078125 C 4.273438 -1.078125 4.644531 -1.179688 4.96875 -1.390625 C 5.289062 -1.597656 5.546875 -1.894531 5.734375 -2.28125 C 5.921875 -2.664062 6.015625 -3.140625 6.015625 -3.703125 C 6.015625 -4.410156 5.832031 -4.976562 5.46875 -5.40625 C 5.101562 -5.832031 4.617188 -6.046875 4.015625 -6.046875 C 3.578125 -6.046875 3.191406 -5.9375 2.859375 -5.71875 C 2.523438 -5.5 2.257812 -5.195312 2.0625 -4.8125 C 1.863281 -4.425781 1.765625 -3.972656 1.765625 -3.453125 C 1.765625 -2.691406 1.953125 -2.101562 2.328125 -1.6875 C 2.703125 -1.28125 3.210938 -1.078125 3.859375 -1.078125 Z M 3.859375 -1.078125 "/></g></g></g><g fill="#000000" fill-opacity="1"><g transform="translate(225.13969, 190.499987)"><g><path d="M 6.34375 -1.234375 L 6.65625 -0.234375 C 6.519531 -0.128906 6.351562 -0.0507812 6.15625 0 C 5.96875 0.0625 5.765625 0.09375 5.546875 0.09375 C 4.796875 0.09375 4.207031 -0.238281 3.78125 -0.90625 L 2.75 -2.484375 C 2.644531 -2.648438 2.535156 -2.765625 2.421875 -2.828125 C 2.304688 -2.898438 2.179688 -2.9375 2.046875 -2.9375 L 2 -2.9375 L 2 0 L 0.734375 0 L 0.734375 -7.109375 L 2.9375 -7.109375 C 3.84375 -7.109375 4.523438 -6.921875 4.984375 -6.546875 C 5.453125 -6.171875 5.6875 -5.660156 5.6875 -5.015625 C 5.6875 -4.617188 5.597656 -4.273438 5.421875 -3.984375 C 5.253906 -3.703125 5.019531 -3.476562 4.71875 -3.3125 C 4.414062 -3.144531 4.078125 -3.039062 3.703125 -3 C 3.898438 -2.882812 4.082031 -2.703125 4.25 -2.453125 L 4.8125 -1.625 C 4.957031 -1.40625 5.09375 -1.253906 5.21875 -1.171875 C 5.351562 -1.097656 5.519531 -1.0625 5.71875 -1.0625 C 5.945312 -1.0625 6.15625 -1.117188 6.34375 -1.234375 Z M 2.859375 -6.046875 L 2 -6.046875 L 2 -3.953125 L 2.796875 -3.953125 C 3.335938 -3.953125 3.738281 -4.035156 4 -4.203125 C 4.257812 -4.367188 4.390625 -4.640625 4.390625 -5.015625 C 4.390625 -5.703125 3.878906 -6.046875 2.859375 -6.046875 Z M 2.859375 -6.046875 "/></g></g></g><g fill="#000000" fill-opacity="1"><g transform="translate(239.037153, 190.499987)"><g><path d="M 5.890625 -7.109375 L 5.734375 -5.96875 L 3.53125 -5.96875 L 3.53125 0 L 2.21875 0 L 2.21875 -5.96875 L -0.0625 -5.96875 L -0.0625 -7.109375 Z M 5.890625 -7.109375 "/></g></g></g></svg>